<svg width="20" height="20" viewBox="0 0 20 20" fill="none" xmlns="http://www.w3.org/2000/svg">
<g clip-path="url(#clip0_13_60)">
<path d="M7.4614 18.2049C6.59653 18.2049 5.70633 18.1349 4.81079 17.9945C3.23349 17.747 1.63681 16.9219 1.185 16.6749L0 16.027L1.28296 15.6051C2.68539 15.144 3.53851 14.8579 4.59457 14.4099C3.53714 13.8978 2.72217 12.9766 2.32986 11.7858L2.0314 10.8798L2.27615 10.9172C2.04407 10.6832 1.86081 10.4458 1.71875 10.2299C1.21353 9.46253 0.946045 8.52488 1.00296 7.72135L1.05911 6.93049L1.53259 7.1139C1.33286 6.7367 1.18851 6.33387 1.10367 5.91166C0.896912 4.882 1.06995 3.78809 1.59103 2.83152L2.00348 2.07438L2.55508 2.73692C4.29962 4.83256 6.50925 6.07569 9.13177 6.43961C9.02466 5.70124 9.10492 4.98866 9.37057 4.34992C9.67987 3.60621 10.2301 2.97556 10.9613 2.52604C11.7734 2.02692 12.7582 1.78507 13.7343 1.84504C14.7699 1.90867 15.7101 2.2967 16.4569 2.96793C16.8216 2.87318 17.0903 2.77201 17.4535 2.63529C17.672 2.55305 17.9198 2.45966 18.2298 2.35285L19.3724 1.95918L18.6273 4.08717C18.6765 4.08305 18.7271 4.07954 18.7801 4.07725L20.0002 4.02201L19.279 5.00758C19.2377 5.06403 19.2271 5.08006 19.2125 5.10218C19.1544 5.18977 19.082 5.29871 18.0922 6.62043C17.8444 6.95139 17.7206 7.38245 17.7437 7.83442C17.8314 9.55195 17.6207 11.1059 17.117 12.4529C16.6406 13.7274 15.9024 14.8208 14.9231 15.7029C13.7112 16.7942 12.166 17.5415 10.33 17.9235C9.42947 18.1109 8.46237 18.2049 7.4614 18.2049Z" fill="#E5E5E5"/>
</g>
<defs>
<clipPath id="clip0_13_60">
<rect width="20.0001" height="20" fill="white"/>
</clipPath>
</defs>
</svg>
