<svg aria-hidden="true" style="position: absolute; width: 0; height: 0; overflow: hidden;" version="1.1" xmlns="http://www.w3.org/2000/svg" xmlns:xlink="http://www.w3.org/1999/xlink">
<defs>
<symbol id="icon-facebook" viewBox="0 0 32 32">
<path fill="#e5e5e5" style="fill: var(--color1, #e5e5e5)" d="M27.312 0h-22.625c-2.584 0-4.688 2.103-4.688 4.688v22.625c0 2.584 2.103 4.688 4.688 4.688h9.438v-11.312h-3.75v-5.625h3.75v-3.813c0-3.102 2.523-5.625 5.625-5.625h5.687v5.625h-5.687v3.813h5.687l-0.937 5.625h-4.75v11.312h7.562c2.584 0 4.688-2.103 4.688-4.688v-22.625c0-2.584-2.103-4.688-4.688-4.688z"></path>
</symbol>
<symbol id="icon-instagram" viewBox="0 0 32 32">
<path fill="#e5e5e5" style="fill: var(--color1, #e5e5e5)" d="M27.312 0h-22.625c-2.584 0-4.688 2.103-4.688 4.688v22.625c0 2.584 2.103 4.688 4.688 4.688h22.625c2.584 0 4.688-2.103 4.688-4.688v-22.625c0-2.584-2.103-4.688-4.688-4.688zM16.063 24.375c-4.653 0-8.438-3.785-8.438-8.438s3.785-8.438 8.438-8.438c4.652 0 8.437 3.785 8.437 8.438s-3.785 8.438-8.437 8.438zM25.437 9.375c-1.551 0-2.812-1.262-2.812-2.813s1.262-2.813 2.812-2.813c1.551 0 2.812 1.262 2.812 2.813s-1.262 2.813-2.812 2.813z"></path>
<path fill="#e5e5e5" style="fill: var(--color1, #e5e5e5)" d="M25.437 5.625c-0.517 0-0.937 0.42-0.937 0.938s0.42 0.938 0.937 0.938c0.517 0 0.938-0.42 0.938-0.938s-0.42-0.938-0.938-0.938z"></path>
<path fill="#e5e5e5" style="fill: var(--color1, #e5e5e5)" d="M16.063 9.375c-3.618 0-6.563 2.944-6.563 6.563s2.944 6.563 6.563 6.563c3.618 0 6.562-2.944 6.562-6.563s-2.944-6.563-6.562-6.563z"></path>
</symbol>
<symbol id="icon-logo" viewBox="0 0 65 32">
<path fill="#fff" style="fill: var(--color2, #fff)" d="M13.629 24.766c0.068 0.044 0.103 0.123 0.103 0.237 0 0.107-0.031 0.182-0.092 0.226-0.059 0.041-0.157 0.062-0.294 0.062h-0.813v1.399c0 0.165-0.037 0.29-0.11 0.375-0.074 0.088-0.18 0.131-0.32 0.131-0.132 0-0.236-0.040-0.309-0.12-0.074-0.078-0.11-0.211-0.11-0.401v-1.538c0-0.078 0.011-0.144 0.033-0.2 0.020-0.058 0.049-0.105 0.088-0.139s0.083-0.060 0.132-0.076c0.049-0.015 0.104-0.022 0.166-0.022h1.206c0.142-0 0.248 0.021 0.32 0.065z"></path>
<path fill="#fff" style="fill: var(--color2, #fff)" d="M15.364 26.649c0 0.197-0.037 0.337-0.11 0.421s-0.186 0.126-0.338 0.126-0.263-0.038-0.335-0.115c-0.071-0.076-0.107-0.212-0.107-0.406v-1.538c0-0.148 0.041-0.258 0.121-0.33s0.188-0.107 0.32-0.107h0.655c0.159 0 0.306 0.021 0.441 0.064s0.252 0.102 0.351 0.179c0.099 0.076 0.176 0.172 0.232 0.288s0.083 0.244 0.083 0.384c0 0.172-0.050 0.322-0.151 0.45s-0.233 0.223-0.397 0.286c-0.164 0.063-0.349 0.095-0.555 0.095h-0.21v0.204h0zM15.828 25.564c0-0.090-0.009-0.161-0.026-0.213s-0.047-0.092-0.090-0.118c-0.043-0.027-0.089-0.044-0.14-0.053s-0.12-0.013-0.208-0.013v0.802c0.068 0 0.129-0.006 0.182-0.018s0.101-0.033 0.145-0.062c0.044-0.029 0.078-0.071 0.101-0.126s0.035-0.12 0.035-0.198z"></path>
<path fill="#fff" style="fill: var(--color2, #fff)" d="M19.582 24.799c0.071 0.068 0.107 0.18 0.107 0.335v0.157c0 0.068-0.009 0.233-0.026 0.495-0.020 0.275-0.034 0.444-0.044 0.507-0.024 0.148-0.061 0.277-0.11 0.386-0.049 0.107-0.118 0.202-0.206 0.284-0.088 0.085-0.201 0.148-0.338 0.189s-0.3 0.062-0.489 0.062c-0.152 0-0.293-0.019-0.423-0.058-0.13-0.036-0.233-0.081-0.309-0.135-0.076-0.056-0.135-0.11-0.177-0.164-0.044-0.053-0.066-0.1-0.066-0.139s0.015-0.075 0.044-0.109c0.032-0.032 0.074-0.047 0.125-0.047 0.037 0 0.080 0.010 0.129 0.029 0.051 0.019 0.099 0.041 0.144 0.065 0.047 0.024 0.102 0.046 0.166 0.065 0.061 0.019 0.123 0.029 0.184 0.029 0.154 0 0.263-0.033 0.327-0.098 0.064-0.063 0.096-0.154 0.096-0.273l0.004-0.007v-0.095c-0.054 0.005-0.108 0.007-0.162 0.007-0.39 0-0.677-0.082-0.861-0.248-0.181-0.165-0.272-0.414-0.272-0.747v-0.157c0-0.129 0.039-0.233 0.118-0.313 0.076-0.082 0.173-0.124 0.29-0.124 0.145 0 0.254 0.027 0.327 0.080 0.076 0.053 0.114 0.162 0.114 0.324v0.259c0.002 0.078 0.015 0.14 0.037 0.186 0.024 0.046 0.056 0.078 0.096 0.095 0.039 0.019 0.089 0.029 0.151 0.029s0.111-0.007 0.151-0.022c0.039-0.015 0.067-0.038 0.085-0.069 0.020-0.032 0.032-0.063 0.037-0.095 0.007-0.032 0.011-0.073 0.011-0.124v-0.262c0-0.082 0.010-0.152 0.029-0.208 0.022-0.056 0.054-0.097 0.096-0.124 0.044-0.027 0.088-0.045 0.132-0.055 0.046-0.010 0.102-0.015 0.166-0.015 0.141 0.001 0.248 0.035 0.319 0.103z"></path>
<path fill="#fff" style="fill: var(--color2, #fff)" d="M21.598 25.553c0-0.119-0.111-0.179-0.335-0.179-0.047 0-0.11 0.004-0.189 0.013s-0.138 0.013-0.175 0.013c-0.176 0-0.265-0.105-0.265-0.313 0-0.216 0.255-0.324 0.765-0.324 0.331 0 0.579 0.053 0.743 0.16s0.246 0.247 0.246 0.419c0 0.241-0.105 0.432-0.316 0.576 0.142 0.076 0.242 0.154 0.3 0.235s0.086 0.199 0.086 0.352c0 0.211-0.084 0.383-0.252 0.515s-0.393 0.199-0.675 0.199c-0.353 0-0.606-0.036-0.759-0.108s-0.23-0.18-0.23-0.326c0-0.122 0.024-0.205 0.074-0.25s0.118-0.067 0.206-0.067c0.044 0 0.113 0.005 0.206 0.015s0.164 0.015 0.213 0.015c0.267 0 0.401-0.049 0.401-0.146 0-0.065-0.026-0.111-0.077-0.137s-0.148-0.038-0.29-0.038c-0.142 0-0.243-0.018-0.302-0.055s-0.088-0.105-0.088-0.204c0-0.151 0.101-0.226 0.302-0.226 0.13 0 0.226-0.006 0.289-0.018s0.099-0.026 0.109-0.042c0.010-0.015 0.015-0.041 0.015-0.078z"></path>
<path fill="#fff" style="fill: var(--color2, #fff)" d="M25.617 24.784c0.071 0.053 0.107 0.162 0.107 0.324v1.545c0 0.197-0.036 0.338-0.107 0.423-0.071 0.083-0.179 0.124-0.324 0.124-0.142 0-0.246-0.039-0.313-0.117-0.066-0.075-0.099-0.21-0.099-0.404l-0.004-0.412-0.004-0.372-0.743 1.090c-0.022 0.032-0.043 0.058-0.063 0.080l-0.007 0.011c-0.068 0.083-0.178 0.124-0.327 0.124-0.142 0-0.246-0.039-0.313-0.117-0.066-0.075-0.099-0.21-0.099-0.404l-0.011-1.538c0-0.151 0.039-0.261 0.118-0.332 0.076-0.070 0.178-0.106 0.305-0.106 0.147 0 0.255 0.027 0.324 0.080 0.071 0.053 0.107 0.162 0.107 0.324v0.907l0.456-0.671 0.302-0.437 0.011-0.018c0.037-0.068 0.086-0.115 0.147-0.142 0.059-0.029 0.13-0.044 0.213-0.044 0.143-0.001 0.251 0.026 0.324 0.079z"></path>
<path fill="#fff" style="fill: var(--color2, #fff)" d="M29.045 26.649c0 0.197-0.036 0.337-0.107 0.421s-0.179 0.126-0.324 0.126c-0.142 0-0.246-0.038-0.313-0.115s-0.099-0.212-0.099-0.406l-0.004-0.412h-0.75v0.386c0 0.199-0.034 0.34-0.103 0.423s-0.178 0.124-0.327 0.124c-0.142 0-0.246-0.038-0.313-0.115s-0.099-0.212-0.099-0.406l-0.011-1.538c0-0.151 0.039-0.261 0.116-0.332s0.18-0.106 0.307-0.106c0.147 0 0.255 0.027 0.325 0.080s0.105 0.162 0.105 0.324v0.612h0.747v-0.579c0-0.102 0.019-0.186 0.057-0.253s0.087-0.114 0.147-0.142c0.060-0.028 0.132-0.042 0.215-0.042 0.142 0 0.25 0.027 0.322 0.080s0.108 0.162 0.108 0.324v1.544h0z"></path>
<path fill="#fff" style="fill: var(--color2, #fff)" d="M31.409 25.385c0-0.051-0.021-0.095-0.064-0.131s-0.094-0.055-0.153-0.055c-0.118 0-0.215 0.066-0.29 0.199s-0.114 0.283-0.114 0.45c0 0.129 0.024 0.245 0.073 0.348s0.12 0.185 0.213 0.246c0.093 0.061 0.201 0.091 0.324 0.091 0.091 0 0.178-0.018 0.261-0.053s0.151-0.074 0.202-0.117c0.051-0.043 0.105-0.081 0.16-0.117s0.103-0.053 0.145-0.053c0.054 0 0.101 0.021 0.14 0.064s0.059 0.087 0.059 0.133c0 0.051-0.015 0.11-0.046 0.179s-0.079 0.14-0.145 0.217c-0.066 0.076-0.143 0.147-0.232 0.211s-0.198 0.118-0.329 0.16c-0.131 0.043-0.269 0.064-0.414 0.064-0.191 0-0.368-0.028-0.532-0.086s-0.305-0.138-0.425-0.244-0.215-0.239-0.283-0.399c-0.068-0.16-0.103-0.34-0.103-0.539 0-0.394 0.119-0.705 0.357-0.933s0.549-0.342 0.934-0.342c0.196 0 0.377 0.033 0.544 0.098s0.299 0.157 0.397 0.273c0.098 0.117 0.147 0.244 0.147 0.383 0 0.16-0.054 0.305-0.162 0.436s-0.248 0.195-0.419 0.195c-0.098 0-0.186-0.027-0.265-0.080s-0.118-0.13-0.118-0.23c0-0.046 0.023-0.11 0.068-0.193s0.069-0.14 0.069-0.174z"></path>
<path fill="#fff" style="fill: var(--color2, #fff)" d="M34.91 25.997c0.125 0.015 0.239 0.077 0.342 0.188s0.154 0.252 0.154 0.424c0 0.168-0.012 0.292-0.037 0.374s-0.066 0.137-0.125 0.168c-0.059 0.030-0.148 0.046-0.268 0.046-0.096 0-0.175-0.013-0.237-0.040s-0.108-0.066-0.138-0.118c-0.029-0.052-0.044-0.12-0.044-0.202 0-0.107-0.004-0.196-0.013-0.268s-0.020-0.129-0.033-0.171c-0.014-0.043-0.034-0.075-0.061-0.097s-0.053-0.036-0.079-0.042c-0.026-0.006-0.061-0.009-0.105-0.009h-0.195v0.404c0 0.194-0.038 0.333-0.114 0.417s-0.188 0.126-0.335 0.126c-0.142 0-0.247-0.039-0.314-0.118s-0.101-0.212-0.101-0.399v-1.52c0-0.153 0.029-0.268 0.086-0.345s0.151-0.115 0.281-0.115c0.076 0 0.139 0.005 0.189 0.015s0.099 0.027 0.147 0.053c0.048 0.026 0.083 0.065 0.107 0.12s0.035 0.125 0.035 0.209c0 0.076-0.001 0.16-0.002 0.253s-0.002 0.16-0.002 0.199c0 0.032 0.008 0.058 0.024 0.080s0.041 0.039 0.074 0.053c0.033 0.014 0.074 0.020 0.123 0.020 0.106 0 0.176-0.041 0.211-0.124s0.053-0.251 0.053-0.507c0-0.126 0.034-0.22 0.103-0.28s0.179-0.091 0.331-0.091c0.164 0 0.275 0.032 0.331 0.095s0.085 0.176 0.085 0.339c0 0.267-0.047 0.474-0.142 0.621s-0.206 0.228-0.333 0.242z"></path>
<path fill="#fff" style="fill: var(--color2, #fff)" d="M38.161 27.074c-0.194 0.096-0.411 0.144-0.653 0.144s-0.458-0.048-0.651-0.144c-0.193-0.096-0.346-0.24-0.462-0.432s-0.173-0.418-0.173-0.678c0-0.394 0.12-0.706 0.358-0.938s0.549-0.348 0.928-0.348c0.38 0 0.69 0.116 0.93 0.348s0.36 0.545 0.36 0.938c0 0.26-0.058 0.486-0.175 0.678s-0.271 0.336-0.465 0.432zM37.51 26.686c0.083 0 0.155-0.036 0.215-0.109s0.103-0.163 0.129-0.27c0.026-0.107 0.039-0.221 0.039-0.342 0-0.124-0.014-0.241-0.041-0.352s-0.071-0.205-0.131-0.283c-0.060-0.078-0.131-0.117-0.211-0.117-0.079 0-0.147 0.039-0.206 0.117s-0.103 0.172-0.132 0.284c-0.029 0.112-0.044 0.229-0.044 0.35s0.014 0.236 0.042 0.342c0.028 0.107 0.072 0.197 0.132 0.27s0.129 0.11 0.208 0.11z"></path>
<path fill="#fff" style="fill: var(--color2, #fff)" d="M41.14 25.717c0.13 0 0.221 0.021 0.274 0.062s0.079 0.112 0.079 0.211c0 0.083-0.031 0.142-0.094 0.177s-0.16 0.053-0.292 0.053h-0.596v0.386l0.798 0.004c0.137 0 0.236 0.020 0.296 0.060s0.090 0.111 0.090 0.213c0 0.117-0.035 0.198-0.105 0.244s-0.176 0.069-0.318 0.069h-1.191c-0.145 0-0.251-0.038-0.318-0.115s-0.101-0.212-0.101-0.406v-1.538c0-0.291 0.14-0.437 0.419-0.437h1.191c0.142 0 0.248 0.022 0.318 0.065s0.105 0.123 0.105 0.237c0 0.107-0.030 0.182-0.090 0.224s-0.159 0.064-0.296 0.064h-0.802v0.426h0.632z"></path>
<path fill="#fff" style="fill: var(--color2, #fff)" d="M46.027 25.83c0.101 0.129 0.151 0.279 0.151 0.452 0 0.141-0.028 0.268-0.085 0.383-0.054 0.117-0.131 0.213-0.232 0.288-0.098 0.078-0.215 0.137-0.349 0.179-0.135 0.044-0.282 0.065-0.441 0.065h-0.658c-0.022 0-0.044-0.001-0.066-0.004h-0.011c-0.096-0.012-0.175-0.047-0.239-0.106-0.081-0.070-0.121-0.18-0.121-0.328v-1.538c0-0.194 0.036-0.33 0.107-0.408 0.066-0.070 0.167-0.108 0.302-0.113h1.236c0.142 0 0.248 0.022 0.316 0.065 0.071 0.044 0.107 0.123 0.107 0.237 0 0.107-0.031 0.182-0.092 0.226-0.059 0.041-0.157 0.062-0.294 0.062h-0.791v0.16h0.21c0.206 0 0.391 0.032 0.555 0.095s0.297 0.158 0.397 0.284zM45.303 26.544c0.017-0.051 0.026-0.122 0.026-0.211 0-0.078-0.011-0.144-0.033-0.201-0.025-0.053-0.059-0.095-0.103-0.124s-0.092-0.050-0.143-0.062c-0.054-0.012-0.115-0.018-0.184-0.018v0.802c0.088 0 0.158-0.005 0.21-0.015 0.049-0.007 0.094-0.024 0.136-0.051 0.044-0.027 0.075-0.067 0.092-0.12z"></path>
<path fill="#fff" style="fill: var(--color2, #fff)" d="M49.366 24.784c0.071 0.053 0.107 0.162 0.107 0.324v1.545c0 0.197-0.036 0.338-0.107 0.423-0.071 0.083-0.179 0.124-0.323 0.124-0.143 0-0.246-0.039-0.313-0.117-0.066-0.075-0.099-0.21-0.099-0.404l-0.004-0.412-0.004-0.372-0.743 1.090c-0.022 0.032-0.043 0.058-0.063 0.080l-0.007 0.011c-0.068 0.083-0.178 0.124-0.327 0.124-0.142 0-0.246-0.039-0.313-0.117-0.066-0.075-0.099-0.21-0.099-0.404l-0.011-1.538c0-0.151 0.039-0.261 0.118-0.332 0.076-0.070 0.178-0.106 0.305-0.106 0.147 0 0.255 0.027 0.324 0.080 0.071 0.053 0.107 0.162 0.107 0.324v0.907l0.456-0.671 0.301-0.437 0.011-0.018c0.037-0.068 0.086-0.115 0.147-0.142 0.059-0.029 0.13-0.044 0.213-0.044 0.143-0.001 0.251 0.026 0.324 0.079z"></path>
<path fill="#fff" style="fill: var(--color2, #fff)" d="M51.874 25.385c0-0.051-0.021-0.095-0.064-0.131s-0.094-0.055-0.153-0.055c-0.118 0-0.215 0.066-0.29 0.199s-0.114 0.283-0.114 0.45c0 0.129 0.024 0.245 0.073 0.348s0.12 0.185 0.213 0.246c0.093 0.061 0.201 0.091 0.323 0.091 0.091 0 0.178-0.018 0.261-0.053s0.151-0.074 0.202-0.117c0.051-0.043 0.105-0.081 0.16-0.117s0.103-0.053 0.145-0.053c0.054 0 0.1 0.021 0.14 0.064s0.059 0.087 0.059 0.133c0 0.051-0.016 0.11-0.046 0.179s-0.079 0.14-0.145 0.217c-0.066 0.076-0.143 0.147-0.232 0.211s-0.198 0.118-0.329 0.16c-0.131 0.043-0.269 0.064-0.414 0.064-0.191 0-0.368-0.028-0.531-0.086s-0.304-0.138-0.425-0.244-0.215-0.239-0.283-0.399c-0.068-0.16-0.103-0.34-0.103-0.539 0-0.394 0.119-0.705 0.357-0.933s0.549-0.342 0.934-0.342c0.196 0 0.377 0.033 0.544 0.098s0.299 0.157 0.398 0.273c0.098 0.117 0.147 0.244 0.147 0.383 0 0.16-0.054 0.305-0.161 0.436s-0.248 0.195-0.419 0.195c-0.098 0-0.186-0.027-0.265-0.080s-0.117-0.13-0.117-0.23c0-0.046 0.022-0.11 0.068-0.193s0.068-0.14 0.068-0.174z"></path>
<path fill="#fff" style="fill: var(--color2, #fff)" d="M55.239 26.649c0 0.138-0.017 0.248-0.051 0.33s-0.081 0.138-0.142 0.169-0.139 0.047-0.238 0.047c-0.145 0-0.249-0.038-0.314-0.115s-0.099-0.212-0.101-0.406l-0.007-1.345h-0.313c-0.154 0-0.27-0.024-0.348-0.073s-0.116-0.135-0.116-0.259c0-0.075 0.016-0.135 0.046-0.179s0.077-0.075 0.138-0.093 0.144-0.027 0.246-0.027h1.574c0.137 0 0.236 0.024 0.298 0.073s0.092 0.133 0.092 0.251c0 0.080-0.018 0.143-0.053 0.188s-0.083 0.076-0.142 0.093-0.135 0.026-0.228 0.026h-0.342v1.319h0.001z"></path>
<path fill="#fff" style="fill: var(--color2, #fff)" d="M57.67 26.649c0 0.197-0.036 0.337-0.111 0.421s-0.186 0.126-0.338 0.126c-0.152 0-0.264-0.038-0.335-0.115s-0.106-0.212-0.106-0.406v-1.538c0-0.148 0.040-0.258 0.121-0.33s0.188-0.107 0.32-0.107h0.655c0.159 0 0.306 0.021 0.441 0.064s0.252 0.102 0.351 0.179 0.176 0.172 0.232 0.288c0.055 0.115 0.083 0.244 0.083 0.384 0 0.172-0.050 0.322-0.151 0.45s-0.233 0.223-0.397 0.286c-0.164 0.063-0.35 0.095-0.555 0.095h-0.21v0.204h0.001zM58.133 25.564c0-0.090-0.009-0.161-0.026-0.213s-0.047-0.092-0.090-0.118c-0.043-0.027-0.090-0.044-0.14-0.053s-0.119-0.013-0.208-0.013v0.802c0.069 0 0.129-0.006 0.182-0.018s0.101-0.033 0.145-0.062c0.044-0.029 0.078-0.071 0.101-0.126s0.035-0.12 0.035-0.198z"></path>
<path fill="#fff" style="fill: var(--color2, #fff)" d="M61.675 27.074c-0.193 0.096-0.411 0.144-0.653 0.144s-0.459-0.048-0.651-0.144c-0.193-0.096-0.346-0.24-0.462-0.432s-0.173-0.418-0.173-0.678c0-0.394 0.12-0.706 0.359-0.938s0.548-0.348 0.928-0.348 0.69 0.116 0.93 0.348c0.24 0.232 0.36 0.545 0.36 0.938 0 0.26-0.059 0.486-0.175 0.678s-0.271 0.336-0.465 0.432zM61.023 26.686c0.083 0 0.155-0.036 0.215-0.109s0.103-0.163 0.129-0.27c0.026-0.107 0.039-0.221 0.039-0.342 0-0.124-0.014-0.241-0.040-0.352s-0.071-0.205-0.131-0.283c-0.060-0.078-0.13-0.117-0.211-0.117-0.079 0-0.147 0.039-0.206 0.117s-0.103 0.172-0.132 0.284c-0.030 0.112-0.044 0.229-0.044 0.35s0.014 0.236 0.042 0.342c0.028 0.107 0.072 0.197 0.132 0.27s0.129 0.11 0.208 0.11z"></path>
<path fill="#fff" style="fill: var(--color2, #fff)" d="M22.176 22.888h-2.264v-8.137h2.264v8.137z"></path>
<path fill="#fff" style="fill: var(--color2, #fff)" d="M25.084 22.888h-1.050v-8.137h1.471l4.99 5.589v-5.589h1.044v8.137h-1.471l-4.984-5.583v5.583h0z"></path>
<path fill="#fff" style="fill: var(--color2, #fff)" d="M41.218 18.994v0.107c-0.008 0.316-0.041 0.644-0.1 0.983s-0.141 0.678-0.248 1.017c-0.107 0.339-0.234 0.674-0.382 1.006s-0.315 0.649-0.499 0.952-0.383 0.588-0.596 0.853c-0.213 0.266-0.437 0.5-0.673 0.704l-0.85-0.486c0.133-0.222 0.254-0.464 0.362-0.726s0.206-0.536 0.294-0.822c0.087-0.286 0.162-0.58 0.225-0.881s0.115-0.601 0.157-0.898c0.042-0.297 0.073-0.591 0.094-0.879s0.031-0.562 0.031-0.822c0-0.204-0.001-0.434-0.003-0.692s-0.017-0.521-0.046-0.788c-0.029-0.267-0.075-0.528-0.14-0.783s-0.161-0.481-0.288-0.681c-0.127-0.2-0.291-0.36-0.491-0.48s-0.448-0.181-0.744-0.181c-0.262 0-0.488 0.044-0.676 0.133s-0.348 0.207-0.479 0.356c-0.131 0.149-0.236 0.321-0.314 0.517s-0.139 0.402-0.182 0.619c-0.044 0.217-0.072 0.435-0.086 0.655s-0.020 0.429-0.020 0.625v1.577h2.458v0.932h-2.458v1.978h-2.264v-4.136c0-0.591 0.095-1.141 0.285-1.65s0.459-0.95 0.807-1.325c0.348-0.375 0.766-0.669 1.255-0.881s1.033-0.319 1.634-0.319c0.407 0 0.788 0.057 1.143 0.172s0.68 0.273 0.972 0.475 0.554 0.441 0.784 0.718c0.23 0.277 0.422 0.579 0.576 0.907s0.271 0.674 0.351 1.040c0.081 0.365 0.117 0.734 0.109 1.107z"></path>
<path fill="#fff" style="fill: var(--color2, #fff)" d="M44.212 16.819l-0.639 6.069h-1.397l1.397-8.137h2.070l1.922 6.21 1.945-6.21h2.070l1.164 8.137h-2.304l-0.679-5.911-1.602 5.911h-2.070l-1.877-6.069z"></path>
<path fill="#fff" style="fill: var(--color2, #fff)" d="M62.701 18.808c0 0.655-0.113 1.246-0.342 1.772s-0.544 0.971-0.946 1.336c-0.403 0.365-0.88 0.646-1.432 0.842s-1.148 0.294-1.791 0.294c-0.643 0-1.24-0.098-1.791-0.294s-1.028-0.476-1.432-0.842c-0.402-0.365-0.718-0.811-0.946-1.336s-0.342-1.116-0.342-1.772c0-0.667 0.113-1.263 0.339-1.789s0.54-0.97 0.941-1.334c0.401-0.364 0.878-0.642 1.428-0.836s1.152-0.291 1.803-0.291c0.65 0 1.251 0.097 1.802 0.291s1.027 0.473 1.428 0.836c0.401 0.364 0.715 0.808 0.941 1.334s0.339 1.122 0.339 1.789zM60.397 18.808c0-0.249-0.011-0.503-0.034-0.763s-0.065-0.512-0.126-0.757c-0.061-0.245-0.144-0.475-0.248-0.689s-0.239-0.402-0.402-0.562c-0.163-0.16-0.36-0.286-0.59-0.379s-0.499-0.139-0.807-0.139c-0.312 0-0.584 0.046-0.816 0.139s-0.43 0.217-0.593 0.376c-0.164 0.158-0.297 0.345-0.4 0.559s-0.184 0.444-0.242 0.687c-0.059 0.243-0.1 0.495-0.123 0.757s-0.034 0.519-0.034 0.771c0 0.249 0.012 0.503 0.034 0.763s0.065 0.511 0.125 0.754c0.061 0.243 0.144 0.472 0.248 0.687s0.239 0.402 0.402 0.562c0.163 0.16 0.36 0.287 0.59 0.382s0.499 0.141 0.807 0.141c0.3 0 0.562-0.048 0.787-0.144s0.418-0.226 0.582-0.39c0.163-0.164 0.299-0.354 0.408-0.571s0.194-0.446 0.257-0.689 0.107-0.492 0.134-0.749c0.027-0.256 0.040-0.505 0.040-0.746z"></path>
<path fill="#fff" style="fill: var(--color2, #fff)" d="M18.36 17.681c-0.107-0.356-0.256-0.684-0.448-0.983s-0.422-0.57-0.69-0.811-0.563-0.446-0.884-0.613c-0.321-0.168-0.664-0.297-1.029-0.387s-0.741-0.136-1.129-0.136h-1.048c0.010 0.006 0.020 0.012 0.030 0.018 0.352 0.224 0.662 0.496 0.931 0.814 0.215 0.044 0.412 0.111 0.592 0.201 0.351 0.177 0.642 0.416 0.87 0.718s0.396 0.651 0.505 1.048c0.108 0.397 0.162 0.816 0.162 1.257 0 0.437-0.055 0.853-0.165 1.249s-0.281 0.745-0.511 1.048-0.521 0.544-0.873 0.723c-0.352 0.179-0.769 0.268-1.252 0.268h-0.599v-1.625c0.031-0.636 0.012-1.167-0.015-1.553-0.065-0.939-0.195-1.262-0.249-1.4-0.159-0.403-0.386-0.715-0.693-0.952-0.292-0.225-0.649-0.334-1.090-0.334-0.075 0-0.147 0.003-0.217 0.010v6.645h3.621c0.388 0 0.765-0.046 1.132-0.138s0.711-0.223 1.032-0.393c0.321-0.17 0.615-0.376 0.881-0.619s0.495-0.515 0.687-0.816c0.192-0.301 0.341-0.63 0.448-0.986s0.16-0.732 0.16-1.127-0.053-0.772-0.16-1.128z"></path>
<path fill="#fff" style="fill: var(--color2, #fff)" d="M9.828 24.924c-0.597-0.454-1.481-0.813-2.652-1.077-0.673-0.15-1.299-0.431-1.878-0.844s-1.049-0.962-1.409-1.646c-0.36-0.683-0.539-1.479-0.539-2.387 0-1.022 0.153-1.803 0.461-2.344s0.762-0.81 1.365-0.81c0.336 0 0.632 0.086 0.887 0.259s0.449 0.414 0.582 0.724c0.133 0.31 0.2 0.661 0.2 1.051v1.068c0 0.85 0.16 1.603 0.479 2.257s0.779 1.166 1.377 1.534c0.427 0.263 0.907 0.431 1.438 0.506v-1.299c-0.249-0.071-0.475-0.186-0.677-0.344-0.365-0.287-0.638-0.663-0.817-1.129s-0.269-0.974-0.269-1.525c0-0.574 0.093-1.097 0.278-1.568s0.458-0.844 0.817-1.12c0.359-0.276 0.794-0.414 1.304-0.414 0.533 0 0.983 0.141 1.348 0.422 0.479 0.369 0.687 0.807 0.826 1.129 0.306 0.708 0.307 1.366 0.309 2.43 0 0.284-0.008 0.52-0.016 0.684v1.2h0.18c0.222 0 0.427-0.022 0.614-0.065 0.098-0.146 0.188-0.302 0.269-0.466 0.325-0.661 0.488-1.404 0.488-2.231 0-0.839-0.163-1.588-0.489-2.249-0.139-0.281-0.301-0.536-0.487-0.765l-0.046-0.055c-0.209-0.248-0.448-0.465-0.711-0.648-0.003-0.002-0.006-0.004-0.009-0.007-0.038-0.026-0.076-0.052-0.115-0.076 0 0-0.021-0.012-0.027-0.017l-0.004-0.003c-0.579-0.36-1.234-0.541-1.965-0.541-0.744 0-1.389 0.152-1.935 0.457s-0.965 0.767-1.255 1.387h-0.070c-0.186-0.62-0.507-1.083-0.965-1.387s-1.012-0.457-1.661-0.457c-0.673 0-1.255 0.175-1.748 0.526s-0.87 0.859-1.13 1.525c-0.261 0.666-0.391 1.453-0.391 2.361 0 0.793 0.119 1.519 0.357 2.18s0.586 1.221 1.045 1.68c0.458 0.46 1.001 0.787 1.628 0.982v0.069c-0.58 0-1.159 0-1.739 0-0.333-0.020-0.616 0.242-0.621 0.559-0.006 0.324 0.281 0.599 0.621 0.579h2.764c0.66 0 1.242 0.074 1.746 0.224s0.898 0.359 1.181 0.629c0.172 0.163 0.296 0.345 0.372 0.544 0.063 0.165 0.082 0.312 0.089 0.413-0.037 0.583 0.446 0.999 0.855 0.953 0.362-0.041 0.708-0.449 0.658-0.953-0.012-0.816-0.316-1.451-0.913-1.905z"></path>
<path fill="#fff" style="fill: var(--color2, #fff)" d="M24.122 12.166c0.199-0.049 0.348-0.107 0.599-0.206 0.203-0.080 0.369-0.154 0.482-0.206 0.161-0.148 0.323-0.295 0.485-0.442-0.118 0.021-0.235 0.042-0.353 0.063 0-0.002-0-0.004-0-0.004 0-0.001 0-0.002 0-0.002 0-0.002 0-0.004-0-0.006h-10.39c-0.326-0.019-0.566 0.252-0.538 0.496 0.024 0.216 0.256 0.412 0.538 0.388h8.552c0.268-0.007 0.481-0.047 0.627-0.082z"></path>
<path fill="#fff" style="fill: var(--color2, #fff)" d="M39.938 11.364c0.005 0.293 0.015 0.591-0.001 0.885h10.443c0.262 0.016 0.483-0.196 0.48-0.447-0.002-0.248-0.222-0.453-0.48-0.438-3.48 0-6.961 0-10.441 0z"></path>
<path fill="#fff" style="fill: var(--color2, #fff)" d="M25.78 9.64c-0.018-0.203-0.028-0.407-0.028-0.615 0-3.833 3.148-6.952 7.017-6.952s7.017 3.119 7.017 6.952c0 0.328-0.024 0.651-0.068 0.967 0.109 0.093 0.219 0.184 0.33 0.272 0.151 0.047 0.3 0.103 0.45 0.168 0.084-0.459 0.128-0.93 0.128-1.407 0-2.079-0.817-4.033-2.301-5.503s-3.456-2.28-5.554-2.28c-2.098 0-4.071 0.809-5.554 2.28s-2.301 3.424-2.301 5.503c0 0.484 0.045 0.962 0.132 1.428 0.268-0.243 0.512-0.514 0.734-0.814z"></path>
<path fill="#fff" style="fill: var(--color2, #fff)" d="M30.224 10.052c0.086-0.625-1.011-1.238 0.060-0.931 0.067 0.018 0.369 0.524 0.519 0.229 0.030-0.055-0.336-0.347-0.306-0.569 0.041-0.325-0.951-0.229-0.903-0.769 0.034-0.337-0.488 0.011-0.63 0.188-0.455 0.569-0.112 0.673-1.104 1.316-0.97 0.628-0.616-0.222-1.776 1.327-0.53 0.71-0.944 0.994-1.854 1.161-0.317 0.059-0.638 0.144-0.951 0.233 1.388-0.491 2.465-1.327 3.242-2.498 1.186-0.968 2.082-1.811 2.686-2.532 0.377-0.329 0.668-0.329 0.865 0 0.164 0.314 0.396 0.425 0.69 0.325 0.377 0.026 0.791 0.436 1.242 1.231 1.246-1.172 2.1-2.062 2.57-2.676 0.287-0.462 0.679-0.344 1.179 0.358 1.227 1.822 2.555 3.293 3.98 4.413 0.746 0.207 1.477 0.665 2.193 1.379-2.346 0-3.521 0-3.521 0-0.611-0.872-1.074-1.331-1.384-1.371-1.44-0.152-2.465 0.38-3.070 1.597 0.153-1.149 1.067-2.055 2.227-2.206-0.448-1.486-2.316 0.218-1.164-0.954 0.172-0.174 0.597-0.122 0.69-0.444 0.071-0.24 0.321-0.469-0.089-0.617-0.131-0.044-0.709-0.425-0.343-0.65 0.407-0.251 0.127-0.772-0.235-1.005-0.365-0.229-0.657 0.994-1.298 1.246-0.41 0.163-1.652 1.312-1.865 1.693-0.175 0.311-1.861 1.903-2.163 2.092-0.026 0.018-1.056 0.787-1.063 0.798 0.142-0.784 0.593-1.253 1.25-1.619 0.309-0.175 0.283-0.408 0.328-0.744z"></path>
</symbol>
<symbol id="icon-phone" viewBox="0 0 32 32">
<path fill="#fff" style="fill: var(--color2, #fff)" d="M31.129 23.485l-4.466-4.466c-1.595-1.595-4.306-0.957-4.944 1.116-0.479 1.436-2.073 2.233-3.509 1.914-3.19-0.797-7.496-4.944-8.293-8.293-0.478-1.435 0.478-3.030 1.914-3.509 2.073-0.638 2.711-3.349 1.116-4.944l-4.466-4.466c-1.276-1.116-3.19-1.116-4.306 0l-3.030 3.030c-3.030 3.19 0.319 11.643 7.815 19.139s15.949 11.005 19.139 7.815l3.030-3.030c1.116-1.276 1.116-3.19 0-4.306z"></path>
</symbol>
<symbol id="icon-twitter" viewBox="0 0 32 32">
<path fill="#e5e5e5" style="fill: var(--color1, #e5e5e5)" d="M11.938 29.128c-1.384 0-2.808-0.112-4.241-0.337-2.524-0.396-5.078-1.716-5.801-2.111l-1.896-1.037 2.053-0.675c2.244-0.738 3.609-1.196 5.299-1.912-1.692-0.819-2.996-2.293-3.624-4.199l-0.478-1.45 0.392 0.060c-0.371-0.374-0.665-0.754-0.892-1.1-0.808-1.228-1.236-2.728-1.145-4.014l0.090-1.265 0.758 0.293c-0.32-0.604-0.551-1.248-0.686-1.924-0.331-1.647-0.054-3.398 0.78-4.928l0.66-1.211 0.883 1.060c2.791 3.353 6.327 5.342 10.523 5.924-0.171-1.181-0.043-2.322 0.382-3.344 0.495-1.19 1.375-2.199 2.545-2.918 1.299-0.799 2.875-1.186 4.437-1.090 1.657 0.102 3.161 0.723 4.356 1.797 0.584-0.152 1.013-0.313 1.595-0.532 0.35-0.132 0.746-0.281 1.242-0.452l1.828-0.63-1.192 3.405c0.079-0.007 0.16-0.012 0.244-0.016l1.952-0.088-1.154 1.577c-0.066 0.090-0.083 0.116-0.106 0.151-0.093 0.14-0.209 0.314-1.792 2.429-0.396 0.53-0.595 1.219-0.558 1.942 0.14 2.748-0.197 5.234-1.003 7.39-0.762 2.039-1.943 3.789-3.51 5.2-1.939 1.746-4.411 2.942-7.349 3.553-1.441 0.3-2.988 0.45-4.59 0.45z"></path>
</symbol>
</defs>
</svg>
